KarlaLatin-Bold.ufo
<glyph name="exclam" format="2">
  <advance width="309"/>
  <unicode hex="0021"/>
  <outline>
    <contour>
      <point x="89" y="264" type="line"/>
      <point x="230" y="264" type="line"/>
      <point x="247" y="702" type="line"/>
      <point x="72" y="702" type="line"/>
    </contour>
    <contour>
      <point x="53" y="94" type="line"/>
      <point x="53" y="34"/>
      <point x="97" y="-9"/>
      <point x="160" y="-9" type="curve" smooth="yes"/>
      <point x="224" y="-9"/>
      <point x="270" y="34"/>
      <point x="270" y="94" type="curve" smooth="yes"/>
      <point x="270" y="152"/>
      <point x="224" y="196"/>
      <point x="160" y="196" type="curve" smooth="yes"/>
      <point x="97" y="196"/>
      <point x="53" y="152"/>
      <point x="53" y="94" type="curve" smooth="yes"/>
    </contour>
  </outline>
</glyph>
<glyph name="numbersign" format="2">
  <advance width="733"/>
  <unicode hex="0023"/>
  <outline>
    <contour>
      <point x="132" y="35" type="line"/>
      <point x="283" y="35" type="line"/>
      <point x="345" y="621" type="line"/>
      <point x="194" y="621" type="line"/>
    </contour>
    <contour>
      <point x="400" y="35" type="line"/>
      <point x="550" y="35" type="line"/>
      <point x="612" y="621" type="line"/>
      <point x="462" y="621" type="line"/>
    </contour>
    <contour>
      <point x="85" y="396" type="line"/>
      <point x="673" y="396" type="line"/>
      <point x="684" y="499" type="line"/>
      <point x="96" y="499" type="line"/>
    </contour>
    <contour>
      <point x="61" y="157" type="line"/>
      <point x="649" y="157" type="line"/>
      <point x="659" y="260" type="line"/>
      <point x="70" y="260" type="line"/>
    </contour>
  </outline>
</glyph>
<glyph name="dollar" format="2">
  <advance width="750"/>
  <unicode hex="0024"/>
  <outline>
    <contour>
      <point x="369" y="686" type="line"/>
      <point x="554" y="686"/>
      <point x="640" y="603"/>
      <point x="665" y="464" type="curve"/>
      <point x="507" y="464" type="line"/>
      <point x="498" y="508"/>
      <point x="451" y="550"/>
      <point x="367" y="550" type="curve" smooth="yes"/>
      <point x="284" y="550"/>
      <point x="245" y="526"/>
      <point x="245" y="492" type="curve" smooth="yes"/>
      <point x="245" y="469"/>
      <point x="260" y="453"/>
      <point x="292" y="440" type="curve" smooth="yes"/>
      <point x="350" y="414" type="line"/>
      <point x="350" y="275" type="line"/>
      <point x="253" y="309" type="line" smooth="yes"/>
      <point x="139" y="349"/>
      <point x="70" y="399"/>
      <point x="70" y="496" type="curve" smooth="yes"/>
      <point x="70" y="609"/>
      <point x="175" y="686"/>
      <point x="369" y="686" type="curve" smooth="yes"/>
    </contour>
    <contour>
      <point x="322" y="764" type="line"/>
      <point x="431" y="764" type="line"/>
      <point x="431" y="-111" type="line"/>
      <point x="322" y="-111" type="line"/>
    </contour>
    <contour>
      <point x="537" y="357" type="line"/>
      <point x="646" y="317"/>
      <point x="689" y="266"/>
      <point x="689" y="182" type="curve" smooth="yes"/>
      <point x="689" y="81"/>
      <point x="600" y="-16"/>
      <point x="391" y="-16" type="curve" smooth="yes"/>
      <point x="216" y="-16"/>
      <point x="61" y="50"/>
      <point x="61" y="219" type="curve"/>
      <point x="219" y="219" type="line"/>
      <point x="219" y="152"/>
      <point x="275" y="130"/>
      <point x="399" y="130" type="curve" smooth="yes"/>
      <point x="480" y="130"/>
      <point x="509" y="152"/>
      <point x="509" y="186" type="curve" smooth="yes"/>
      <point x="509" y="211"/>
      <point x="490" y="232"/>
      <point x="456" y="247" type="curve" smooth="yes"/>
      <point x="377" y="279" type="line"/>
      <point x="377" y="416" type="line"/>
    </contour>
  </outline>
</glyph>
<glyph name="percent" format="2">
  <advance width="806"/>
  <unicode hex="0025"/>
  <outline>
    <contour>
      <point x="207" y="686" type="line"/>
      <point x="128" y="686"/>
      <point x="61" y="635"/>
      <point x="61" y="526" type="curve" smooth="yes"/>
      <point x="61" y="417"/>
      <point x="128" y="366"/>
      <point x="207" y="366" type="curve" smooth="yes"/>
      <point x="286" y="366"/>
      <point x="354" y="417"/>
      <point x="354" y="526" type="curve" smooth="yes"/>
      <point x="354" y="635"/>
      <point x="286" y="686"/>
      <point x="207" y="686" type="curve" smooth="yes"/>
    </contour>
    <contour>
      <point x="207" y="588" type="line"/>
      <point x="225" y="588"/>
      <point x="238" y="575"/>
      <point x="238" y="526" type="curve" smooth="yes"/>
      <point x="238" y="477"/>
      <point x="225" y="464"/>
      <point x="207" y="464" type="curve" smooth="yes"/>
      <point x="188" y="464"/>
      <point x="176" y="477"/>
      <point x="176" y="526" type="curve" smooth="yes"/>
      <point x="176" y="575"/>
      <point x="188" y="588"/>
      <point x="207" y="588" type="curve" smooth="yes"/>
    </contour>
    <contour>
      <point x="101" y="0" type="line"/>
      <point x="261" y="0" type="line"/>
      <point x="717" y="671" type="line"/>
      <point x="558" y="671" type="line"/>
    </contour>
    <contour>
      <point x="610" y="305" type="line"/>
      <point x="531" y="305"/>
      <point x="464" y="254"/>
      <point x="464" y="145" type="curve" smooth="yes"/>
      <point x="464" y="35"/>
      <point x="531" y="-16"/>
      <point x="610" y="-16" type="curve" smooth="yes"/>
      <point x="689" y="-16"/>
      <point x="757" y="35"/>
      <point x="757" y="145" type="curve" smooth="yes"/>
      <point x="757" y="254"/>
      <point x="689" y="305"/>
      <point x="610" y="305" type="curve" smooth="yes"/>
    </contour>
    <contour>
      <point x="610" y="207" type="line"/>
      <point x="628" y="207"/>
      <point x="642" y="193"/>
      <point x="642" y="145" type="curve" smooth="yes"/>
      <point x="642" y="96"/>
      <point x="628" y="83"/>
      <point x="610" y="83" type="curve" smooth="yes"/>
      <point x="592" y="83"/>
      <point x="580" y="96"/>
      <point x="580" y="145" type="curve" smooth="yes"/>
      <point x="580" y="193"/>
      <point x="592" y="207"/>
      <point x="610" y="207" type="curve" smooth="yes"/>
    </contour>
  </outline>
</glyph>
<glyph name="parenleft" format="2">
  <advance width="446"/>
  <unicode hex="0028"/>
  <outline>
    <contour>
      <point x="294" y="782" type="line"/>
      <point x="137" y="648"/>
      <point x="73" y="502"/>
      <point x="73" y="330" type="curve" smooth="yes"/>
      <point x="73" y="159"/>
      <point x="137" y="13"/>
      <point x="294" y="-122" type="curve"/>
      <point x="409" y="-35" type="line"/>
      <point x="293" y="89"/>
      <point x="237" y="192"/>
      <point x="237" y="330" type="curve" smooth="yes"/>
      <point x="237" y="469"/>
      <point x="293" y="572"/>
      <point x="409" y="696" type="curve"/>
    </contour>
  </outline>
</glyph>
<glyph name="asterisk" format="2">
  <advance width="405"/>
  <unicode hex="002A"/>
  <outline>
    <contour>
      <point x="66" y="468" type="line"/>
      <point x="137" y="405" type="line"/>
      <point x="208" y="502" type="line"/>
      <point x="277" y="405" type="line"/>
      <point x="350" y="468" type="line"/>
      <point x="269" y="543" type="line"/>
      <point x="371" y="576" type="line"/>
      <point x="334" y="665" type="line"/>
      <point x="243" y="615" type="line"/>
      <point x="258" y="725" type="line"/>
      <point x="156" y="725" type="line"/>
      <point x="171" y="615" type="line"/>
      <point x="80" y="663" type="line"/>
      <point x="43" y="575" type="line"/>
      <point x="148" y="542" type="line"/>
    </contour>
  </outline>
</glyph>
<glyph name="plus" format="2">
  <advance width="561"/>
  <unicode hex="002B"/>
  <outline>
    <contour>
      <point x="200" y="491" type="line"/>
      <point x="200" y="315" type="line"/>
      <point x="18" y="315" type="line"/>
      <point x="18" y="175" type="line"/>
      <point x="200" y="175" type="line"/>
      <point x="200" y="0" type="line"/>
      <point x="361" y="0" type="line"/>
      <point x="361" y="175" type="line"/>
      <point x="543" y="175" type="line"/>
      <point x="543" y="315" type="line"/>
      <point x="361" y="315" type="line"/>
      <point x="361" y="491" type="line"/>
    </contour>
  </outline>
</glyph>
<glyph name="comma" format="2">
  <advance width="299"/>
  <unicode hex="002C"/>
  <outline>
    <contour>
      <point x="46" y="84" type="line"/>
      <point x="46" y="36"/>
      <point x="84" y="6"/>
      <point x="129" y="-4" type="curve"/>
      <point x="114" y="-45"/>
      <point x="68" y="-80"/>
      <point x="18" y="-104" type="curve"/>
      <point x="135" y="-164" type="line"/>
      <point x="219" y="-123"/>
      <point x="275" y="-38"/>
      <point x="275" y="39" type="curve" smooth="yes"/>
      <point x="275" y="115"/>
      <point x="230" y="176"/>
      <point x="153" y="176" type="curve" smooth="yes"/>
      <point x="92" y="176"/>
      <point x="46" y="137"/>
      <point x="46" y="84" type="curve" smooth="yes"/>
    </contour>
  </outline>
</glyph>
<glyph name="slash" format="2">
  <advance width="513"/>
  <unicode hex="002F"/>
  <outline>
    <contour>
      <point x="49" y="-89" type="line"/>
      <point x="211" y="-89" type="line"/>
      <point x="476" y="759" type="line"/>
      <point x="313" y="759" type="line"/>
    </contour>
  </outline>
</glyph>
<glyph name="zero" format="2">
  <advance width="673"/>
  <unicode hex="0030"/>
  <outline>
    <contour>
      <point x="337" y="686" type="line"/>
      <point x="166" y="686"/>
      <point x="43" y="575"/>
      <point x="43" y="335" type="curve" smooth="yes"/>
      <point x="43" y="96"/>
      <point x="166" y="-16"/>
      <point x="337" y="-16" type="curve" smooth="yes"/>
      <point x="507" y="-16"/>
      <point x="631" y="96"/>
      <point x="631" y="335" type="curve" smooth="yes"/>
      <point x="631" y="575"/>
      <point x="507" y="686"/>
      <point x="337" y="686" type="curve" smooth="yes"/>
    </contour>
    <contour>
      <point x="337" y="541" type="line"/>
      <point x="416" y="541"/>
      <point x="467" y="470"/>
      <point x="467" y="335" type="curve" smooth="yes"/>
      <point x="467" y="200"/>
      <point x="416" y="130"/>
      <point x="337" y="130" type="curve" smooth="yes"/>
      <point x="258" y="130"/>
      <point x="207" y="200"/>
      <point x="207" y="335" type="curve" smooth="yes"/>
      <point x="207" y="470"/>
      <point x="258" y="541"/>
      <point x="337" y="541" type="curve" smooth="yes"/>
    </contour>
  </outline>
</glyph>
<glyph name="one" format="2">
  <advance width="384"/>
  <unicode hex="0031"/>
  <outline>
    <contour>
      <point x="182" y="677" type="line"/>
      <point x="128" y="640"/>
      <point x="83" y="627"/>
      <point x="36" y="622" type="curve"/>
      <point x="36" y="470" type="line"/>
      <point x="68" y="470"/>
      <point x="100" y="474"/>
      <point x="139" y="485" type="curve"/>
      <point x="139" y="0" type="line"/>
      <point x="299" y="0" type="line"/>
      <point x="299" y="677" type="line"/>
    </contour>
  </outline>
</glyph>
<glyph name="four" format="2">
  <advance width="633"/>
  <unicode hex="0034"/>
  <outline>
    <contour>
      <point x="352" y="676" type="line"/>
      <point x="18" y="254" type="line"/>
      <point x="18" y="134" type="line"/>
      <point x="352" y="134" type="line"/>
      <point x="352" y="0" type="line"/>
      <point x="510" y="0" type="line"/>
      <point x="510" y="134" type="line"/>
      <point x="627" y="134" type="line"/>
      <point x="627" y="273" type="line"/>
      <point x="510" y="273" type="line"/>
      <point x="510" y="676" type="line"/>
    </contour>
    <contour>
      <point x="360" y="447" type="line"/>
      <point x="360" y="254" type="line"/>
      <point x="207" y="254" type="line"/>
    </contour>
  </outline>
</glyph>
<glyph name="five" format="2">
  <advance width="600"/>
  <unicode hex="0035"/>
  <outline>
    <contour>
      <point x="107" y="671" type="line"/>
      <point x="75" y="307" type="line"/>
      <point x="304" y="307" type="line" smooth="yes"/>
      <point x="378" y="307"/>
      <point x="414" y="279"/>
      <point x="414" y="230" type="curve" smooth="yes"/>
      <point x="414" y="173"/>
      <point x="368" y="130"/>
      <point x="313" y="130" type="curve" smooth="yes"/>
      <point x="255" y="130"/>
      <point x="213" y="157"/>
      <point x="213" y="213" type="curve"/>
      <point x="49" y="213" type="line"/>
      <point x="53" y="68"/>
      <point x="151" y="-16"/>
      <point x="313" y="-16" type="curve" smooth="yes"/>
      <point x="470" y="-16"/>
      <point x="578" y="94"/>
      <point x="578" y="230" type="curve" smooth="yes"/>
      <point x="578" y="351"/>
      <point x="491" y="425"/>
      <point x="358" y="425" type="curve" smooth="yes"/>
      <point x="326" y="425"/>
      <point x="272" y="420"/>
      <point x="239" y="412" type="curve"/>
      <point x="249" y="400" type="line"/>
      <point x="266" y="566" type="line"/>
      <point x="236" y="525" type="line"/>
      <point x="539" y="525" type="line"/>
      <point x="539" y="671" type="line"/>
    </contour>
  </outline>
</glyph>
<glyph name="seven" format="2">
  <advance width="527"/>
  <unicode hex="0037"/>
  <outline>
    <contour>
      <point x="24" y="671" type="line"/>
      <point x="24" y="515" type="line"/>
      <point x="322" y="515" type="line"/>
      <point x="28" y="0" type="line"/>
      <point x="245" y="0" type="line"/>
      <point x="509" y="515" type="line"/>
      <point x="509" y="671" type="line"/>
    </contour>
  </outline>
</glyph>
<glyph name="less" format="2">
  <advance width="553"/>
  <unicode hex="003C"/>
  <outline>
    <contour>
      <point x="403" y="665" type="line"/>
      <point x="49" y="413" type="line"/>
      <point x="49" y="267" type="line"/>
      <point x="403" y="16" type="line"/>
      <point x="510" y="136" type="line"/>
      <point x="166" y="374" type="line"/>
      <point x="166" y="306" type="line"/>
      <point x="510" y="544" type="line"/>
    </contour>
  </outline>
</glyph>
<glyph name="equal" format="2">
  <advance width="526"/>
  <unicode hex="003D"/>
  <outline>
    <contour>
      <point x="79" y="213" type="line"/>
      <point x="79" y="73" type="line"/>
      <point x="447" y="73" type="line"/>
      <point x="447" y="213" type="line"/>
    </contour>
    <contour>
      <point x="79" y="442" type="line"/>
      <point x="79" y="303" type="line"/>
      <point x="447" y="303" type="line"/>
      <point x="447" y="442" type="line"/>
    </contour>
  </outline>
</glyph>
<glyph name="greater" format="2">
  <advance width="553"/>
  <unicode hex="003E"/>
  <outline>
    <contour>
      <point x="149" y="665" type="line"/>
      <point x="504" y="413" type="line"/>
      <point x="504" y="267" type="line"/>
      <point x="149" y="16" type="line"/>
      <point x="43" y="136" type="line"/>
      <point x="386" y="374" type="line"/>
      <point x="386" y="306" type="line"/>
      <point x="43" y="544" type="line"/>
    </contour>
  </outline>
</glyph>
<glyph name="question" format="2">
  <advance width="537"/>
  <unicode hex="003F"/>
  <outline>
    <contour>
      <point x="265" y="686" type="line"/>
      <point x="422" y="686"/>
      <point x="519" y="601"/>
      <point x="519" y="488" type="curve" smooth="yes"/>
      <point x="519" y="417"/>
      <point x="485" y="369"/>
      <point x="413" y="335" type="curve" smooth="yes"/>
      <point x="351" y="306"/>
      <point x="333" y="286"/>
      <point x="333" y="247" type="curve" smooth="yes"/>
      <point x="333" y="230" type="line"/>
      <point x="173" y="230" type="line"/>
      <point x="173" y="264" type="line" smooth="yes"/>
      <point x="173" y="351"/>
      <point x="205" y="384"/>
      <point x="273" y="416" type="curve" smooth="yes"/>
      <point x="332" y="443"/>
      <point x="343" y="462"/>
      <point x="343" y="488" type="curve" smooth="yes"/>
      <point x="343" y="519"/>
      <point x="315" y="541"/>
      <point x="272" y="541" type="curve" smooth="yes"/>
      <point x="215" y="541"/>
      <point x="182" y="507"/>
      <point x="182" y="464" type="curve"/>
      <point x="18" y="464" type="line"/>
      <point x="23" y="600"/>
      <point x="109" y="686"/>
      <point x="265" y="686" type="curve" smooth="yes"/>
    </contour>
    <contour>
      <point x="258" y="188" type="line"/>
      <point x="321" y="188"/>
      <point x="367" y="145"/>
      <point x="367" y="86" type="curve" smooth="yes"/>
      <point x="367" y="27"/>
      <point x="321" y="-16"/>
      <point x="258" y="-16" type="curve" smooth="yes"/>
      <point x="194" y="-16"/>
      <point x="151" y="27"/>
      <point x="151" y="86" type="curve" smooth="yes"/>
      <point x="151" y="145"/>
      <point x="194" y="188"/>
      <point x="258" y="188" type="curve" smooth="yes"/>
    </contour>
  </outline>
</glyph>
<glyph name="B" format="2">
  <advance width="676"/>
  <unicode hex="0042"/>
  <outline>
    <contour>
      <point x="85" y="0" type="line"/>
      <point x="377" y="0" type="line" smooth="yes"/>
      <point x="580" y="0"/>
      <point x="627" y="111"/>
      <point x="627" y="190" type="curve" smooth="yes"/>
      <point x="627" y="278"/>
      <point x="571" y="323"/>
      <point x="502" y="340" type="curve"/>
      <point x="570" y="364"/>
      <point x="616" y="417"/>
      <point x="616" y="490" type="curve" smooth="yes"/>
      <point x="616" y="593"/>
      <point x="538" y="671"/>
      <point x="375" y="671" type="curve" smooth="yes"/>
      <point x="85" y="671" type="line"/>
    </contour>
    <contour>
      <point x="245" y="140" type="line"/>
      <point x="245" y="264" type="line"/>
      <point x="372" y="264" type="line" smooth="yes"/>
      <point x="429" y="264"/>
      <point x="454" y="238"/>
      <point x="454" y="200" type="curve" smooth="yes"/>
      <point x="454" y="162"/>
      <point x="426" y="140"/>
      <point x="372" y="140" type="curve" smooth="yes"/>
    </contour>
    <contour>
      <point x="245" y="532" type="line"/>
      <point x="369" y="532" type="line" smooth="yes"/>
      <point x="429" y="532"/>
      <point x="453" y="503"/>
      <point x="453" y="467" type="curve" smooth="yes"/>
      <point x="453" y="430"/>
      <point x="429" y="405"/>
      <point x="368" y="405" type="curve" smooth="yes"/>
      <point x="245" y="405" type="line"/>
    </contour>
  </outline>
</glyph>
<glyph name="C" format="2">
  <advance width="655"/>
  <unicode hex="0043"/>
  <outline>
    <contour>
      <point x="339" y="686" type="line"/>
      <point x="508" y="686"/>
      <point x="595" y="598"/>
      <point x="612" y="470" type="curve"/>
      <point x="442" y="440" type="line"/>
      <point x="426" y="498"/>
      <point x="395" y="541"/>
      <point x="339" y="541" type="curve" smooth="yes"/>
      <point x="266" y="541"/>
      <point x="215" y="475"/>
      <point x="215" y="335" type="curve" smooth="yes"/>
      <point x="215" y="196"/>
      <point x="266" y="130"/>
      <point x="339" y="130" type="curve" smooth="yes"/>
      <point x="407" y="130"/>
      <point x="442" y="173"/>
      <point x="442" y="224" type="curve"/>
      <point x="612" y="224" type="line"/>
      <point x="612" y="70"/>
      <point x="516" y="-16"/>
      <point x="339" y="-16" type="curve" smooth="yes"/>
      <point x="163" y="-16"/>
      <point x="43" y="104"/>
      <point x="43" y="335" type="curve" smooth="yes"/>
      <point x="43" y="566"/>
      <point x="163" y="686"/>
      <point x="339" y="686" type="curve"/>
    </contour>
  </outline>
</glyph>
<glyph name="E" format="2">
  <advance width="612"/>
  <unicode hex="0045"/>
  <anchor x="307" y="690" name="above"/>
  <outline>
    <contour>
      <point x="83" y="0" type="line"/>
      <point x="533" y="0" type="line"/>
      <point x="533" y="140" type="line"/>
      <point x="243" y="140" type="line"/>
      <point x="243" y="265" type="line"/>
      <point x="514" y="265" type="line"/>
      <point x="514" y="403" type="line"/>
      <point x="243" y="403" type="line"/>
      <point x="243" y="532" type="line"/>
      <point x="533" y="532" type="line"/>
      <point x="533" y="671" type="line"/>
      <point x="83" y="671" type="line"/>
    </contour>
  </outline>
</glyph>
<glyph name="G" format="2">
  <advance width="712"/>
  <unicode hex="0047"/>
  <outline>
    <contour>
      <point x="639" y="0" type="line"/>
      <point x="639" y="357" type="line"/>
      <point x="354" y="357" type="line"/>
      <point x="354" y="258" type="line"/>
      <point x="486" y="258" type="line"/>
      <point x="486" y="137" type="line"/>
      <point x="507" y="0" type="line"/>
    </contour>
    <contour>
      <point x="43" y="335" type="line"/>
      <point x="43" y="129"/>
      <point x="170" y="-16"/>
      <point x="339" y="-16" type="curve" smooth="yes"/>
      <point x="457" y="-16"/>
      <point x="515" y="87"/>
      <point x="515" y="252" type="curve"/>
      <point x="486" y="252" type="line"/>
      <point x="486" y="183"/>
      <point x="431" y="130"/>
      <point x="354" y="130" type="curve" smooth="yes"/>
      <point x="275" y="130"/>
      <point x="215" y="208"/>
      <point x="215" y="335" type="curve" smooth="yes"/>
      <point x="215" y="463"/>
      <point x="275" y="541"/>
      <point x="354" y="541" type="curve" smooth="yes"/>
      <point x="409" y="541"/>
      <point x="445" y="507"/>
      <point x="467" y="452" type="curve"/>
      <point x="637" y="482" type="line"/>
      <point x="598" y="622"/>
      <point x="507" y="686"/>
      <point x="363" y="686" type="curve" smooth="yes"/>
      <point x="170" y="686"/>
      <point x="43" y="542"/>
      <point x="43" y="335" type="curve" smooth="yes"/>
    </contour>
  </outline>
</glyph>
<glyph name="H" format="2">
  <advance width="744"/>
  <unicode hex="0048"/>
  <outline>
    <contour>
      <point x="85" y="671" type="line"/>
      <point x="85" y="0" type="line"/>
      <point x="245" y="0" type="line"/>
      <point x="245" y="266" type="line"/>
      <point x="498" y="266" type="line"/>
      <point x="498" y="0" type="line"/>
      <point x="659" y="0" type="line"/>
      <point x="659" y="671" type="line"/>
      <point x="498" y="671" type="line"/>
      <point x="498" y="406" type="line"/>
      <point x="245" y="406" type="line"/>
      <point x="245" y="671" type="line"/>
    </contour>
  </outline>
</glyph>
<glyph name="K" format="2">
  <advance width="703"/>
  <unicode hex="004B"/>
  <outline>
    <contour>
      <point x="474" y="671" type="line"/>
      <point x="236" y="422" type="line"/>
      <point x="236" y="207" type="line"/>
      <point x="693" y="671" type="line"/>
    </contour>
    <contour>
      <point x="368" y="399" type="line"/>
      <point x="259" y="295" type="line"/>
      <point x="508" y="0" type="line"/>
      <point x="713" y="0" type="line"/>
    </contour>
    <contour>
      <point x="85" y="671" type="line"/>
      <point x="85" y="0" type="line"/>
      <point x="245" y="0" type="line"/>
      <point x="245" y="671" type="line"/>
    </contour>
  </outline>
</glyph>
<glyph name="L" format="2">
  <advance width="522"/>
  <unicode hex="004C"/>
  <outline>
    <contour>
      <point x="245" y="671" type="line"/>
      <point x="85" y="671" type="line"/>
      <point x="85" y="0" type="line"/>
      <point x="498" y="0" type="line"/>
      <point x="498" y="140" type="line"/>
      <point x="245" y="140" type="line"/>
    </contour>
  </outline>
</glyph>
<glyph name="M" format="2">
  <advance width="903"/>
  <unicode hex="004D"/>
  <outline>
    <contour>
      <point x="85" y="671" type="line"/>
      <point x="85" y="0" type="line"/>
      <point x="245" y="0" type="line"/>
      <point x="245" y="477" type="line"/>
      <point x="232" y="477" type="line"/>
      <point x="403" y="63" type="line"/>
      <point x="507" y="63" type="line"/>
      <point x="679" y="477" type="line"/>
      <point x="657" y="477" type="line"/>
      <point x="657" y="0" type="line"/>
      <point x="818" y="0" type="line"/>
      <point x="818" y="671" type="line"/>
      <point x="598" y="671" type="line"/>
      <point x="450" y="313" type="line"/>
      <point x="462" y="313" type="line"/>
      <point x="313" y="671" type="line"/>
    </contour>
  </outline>
</glyph>
<glyph name="O" format="2">
  <advance width="722"/>
  <unicode hex="004F"/>
  <anchor x="360" y="690" name="above"/>
  <outline>
    <contour>
      <point x="360" y="686" type="line"/>
      <point x="169" y="686"/>
      <point x="43" y="573"/>
      <point x="43" y="338" type="curve" smooth="yes"/>
      <point x="43" y="107"/>
      <point x="169" y="-16"/>
      <point x="360" y="-16" type="curve" smooth="yes"/>
      <point x="553" y="-16"/>
      <point x="679" y="102"/>
      <point x="679" y="338" type="curve" smooth="yes"/>
      <point x="679" y="566"/>
      <point x="553" y="686"/>
      <point x="360" y="686" type="curve" smooth="yes"/>
    </contour>
    <contour>
      <point x="360" y="543" type="line"/>
      <point x="453" y="543"/>
      <point x="515" y="464"/>
      <point x="515" y="339" type="curve" smooth="yes"/>
      <point x="515" y="204"/>
      <point x="453" y="128"/>
      <point x="360" y="128" type="curve" smooth="yes"/>
      <point x="269" y="128"/>
      <point x="207" y="204"/>
      <point x="207" y="338" type="curve" smooth="yes"/>
      <point x="207" y="464"/>
      <point x="269" y="543"/>
      <point x="360" y="543" type="curve" smooth="yes"/>
    </contour>
  </outline>
</glyph>
<glyph name="Q" format="2">
  <advance width="722"/>
  <unicode hex="0051"/>
  <outline>
    <contour>
      <point x="316" y="30" type="line"/>
      <point x="385" y="-80" type="line" smooth="yes"/>
      <point x="429" y="-151"/>
      <point x="498" y="-193"/>
      <point x="570" y="-193" type="curve" smooth="yes"/>
      <point x="601" y="-193"/>
      <point x="631" y="-190"/>
      <point x="663" y="-176" type="curve"/>
      <point x="663" y="-17" type="line"/>
      <point x="628" y="-29"/>
      <point x="597" y="-36"/>
      <point x="565" y="-36" type="curve" smooth="yes"/>
      <point x="536" y="-36"/>
      <point x="509" y="-27"/>
      <point x="493" y="-1" type="curve" smooth="yes"/>
      <point x="434" y="97" type="line"/>
    </contour>
    <contour>
      <point x="360" y="686" type="line"/>
      <point x="169" y="686"/>
      <point x="43" y="573"/>
      <point x="43" y="338" type="curve" smooth="yes"/>
      <point x="43" y="107"/>
      <point x="169" y="-16"/>
      <point x="360" y="-16" type="curve" smooth="yes"/>
      <point x="553" y="-16"/>
      <point x="679" y="102"/>
      <point x="679" y="338" type="curve" smooth="yes"/>
      <point x="679" y="566"/>
      <point x="553" y="686"/>
      <point x="360" y="686" type="curve" smooth="yes"/>
    </contour>
    <contour>
      <point x="360" y="543" type="line"/>
      <point x="453" y="543"/>
      <point x="515" y="464"/>
      <point x="515" y="339" type="curve" smooth="yes"/>
      <point x="515" y="204"/>
      <point x="453" y="128"/>
      <point x="360" y="128" type="curve" smooth="yes"/>
      <point x="269" y="128"/>
      <point x="207" y="204"/>
      <point x="207" y="338" type="curve" smooth="yes"/>
      <point x="207" y="464"/>
      <point x="269" y="543"/>
      <point x="360" y="543" type="curve" smooth="yes"/>
    </contour>
  </outline>
</glyph>
<glyph name="W" format="2">
  <advance width="1002"/>
  <unicode hex="0057"/>
  <outline>
    <contour>
      <point x="6" y="671" type="line"/>
      <point x="232" y="0" type="line"/>
      <point x="400" y="0" type="line"/>
      <point x="502" y="338" type="line"/>
      <point x="496" y="338" type="line"/>
      <point x="604" y="0" type="line"/>
      <point x="772" y="0" type="line"/>
      <point x="996" y="671" type="line"/>
      <point x="815" y="671" type="line"/>
      <point x="673" y="153" type="line"/>
      <point x="705" y="153" type="line"/>
      <point x="548" y="651" type="line"/>
      <point x="440" y="651" type="line"/>
      <point x="298" y="141" type="line"/>
      <point x="335" y="141" type="line"/>
      <point x="185" y="671" type="line"/>
    </contour>
  </outline>
</glyph>
<glyph name="X" format="2">
  <advance width="728"/>
  <unicode hex="0058"/>
  <outline>
    <contour>
      <point x="710" y="0" type="line"/>
      <point x="508" y="0" type="line"/>
      <point x="347" y="209" type="line"/>
      <point x="213" y="0" type="line"/>
      <point x="18" y="0" type="line"/>
      <point x="256" y="335" type="line"/>
      <point x="19" y="671" type="line"/>
      <point x="217" y="671" type="line"/>
      <point x="363" y="460" type="line"/>
      <point x="479" y="671" type="line"/>
      <point x="673" y="671" type="line"/>
      <point x="453" y="338" type="line"/>
    </contour>
  </outline>
</glyph>
<glyph name="Y" format="2">
  <advance width="627"/>
  <unicode hex="0059"/>
  <outline>
    <contour>
      <point x="5" y="671" type="line"/>
      <point x="227" y="278" type="line"/>
      <point x="227" y="0" type="line"/>
      <point x="386" y="0" type="line"/>
      <point x="386" y="278" type="line"/>
      <point x="622" y="671" type="line"/>
      <point x="433" y="671" type="line"/>
      <point x="296" y="419" type="line"/>
      <point x="321" y="419" type="line"/>
      <point x="194" y="671" type="line"/>
    </contour>
  </outline>
</glyph>
<glyph name="Z" format="2">
  <advance width="668"/>
  <unicode hex="005A"/>
  <outline>
    <contour>
      <point x="73" y="135" type="line"/>
      <point x="441" y="584" type="line"/>
      <point x="441" y="525" type="line"/>
      <point x="73" y="525" type="line"/>
      <point x="73" y="671" type="line"/>
      <point x="595" y="671" type="line"/>
      <point x="595" y="537" type="line"/>
      <point x="262" y="128" type="line"/>
      <point x="262" y="146" type="line"/>
      <point x="595" y="146" type="line"/>
      <point x="595" y="0" type="line"/>
      <point x="73" y="0" type="line"/>
    </contour>
  </outline>
</glyph>
<glyph name="bracketleft" format="2">
  <advance width="390"/>
  <unicode hex="005B"/>
  <outline>
    <contour>
      <point x="85" y="-182" type="line"/>
      <point x="384" y="-182" type="line"/>
      <point x="384" y="-36" type="line"/>
      <point x="245" y="-36" type="line"/>
      <point x="245" y="707" type="line"/>
      <point x="384" y="707" type="line"/>
      <point x="384" y="853" type="line"/>
      <point x="85" y="853" type="line"/>
    </contour>
  </outline>
</glyph>
<glyph name="asciicircum" format="2">
  <advance width="612"/>
  <unicode hex="005E"/>
  <outline>
    <contour>
      <point x="18" y="190" type="line"/>
      <point x="241" y="620" type="line"/>
      <point x="372" y="620" type="line"/>
      <point x="594" y="190" type="line"/>
      <point x="418" y="190" type="line"/>
      <point x="275" y="502" type="line"/>
      <point x="338" y="502" type="line"/>
      <point x="194" y="190" type="line"/>
    </contour>
  </outline>
</glyph>
<glyph name="grave" format="2">
  <advance width="401"/>
  <unicode hex="0060"/>
  <anchor x="200" y="690" name="_above"/>
  <outline>
    <contour>
      <point x="24" y="807" type="line"/>
      <point x="340" y="712" type="line"/>
      <point x="377" y="813" type="line"/>
      <point x="77" y="944" type="line"/>
    </contour>
  </outline>
</glyph>
<glyph name="a" format="2">
  <advance width="621"/>
  <unicode hex="0061"/>
  <anchor x="315" y="547" name="above"/>
  <outline>
    <contour>
      <point x="388" y="317" type="line"/>
      <point x="388" y="366"/>
      <point x="375" y="394"/>
      <point x="315" y="394" type="curve" smooth="yes"/>
      <point x="265" y="394"/>
      <point x="242" y="368"/>
      <point x="242" y="337" type="curve"/>
      <point x="69" y="337" type="line"/>
      <point x="69" y="454"/>
      <point x="152" y="509"/>
      <point x="315" y="509" type="curve" smooth="yes"/>
      <point x="458" y="509"/>
      <point x="548" y="443"/>
      <point x="548" y="311" type="curve" smooth="yes"/>
      <point x="548" y="0" type="line"/>
      <point x="408" y="0" type="line"/>
      <point x="388" y="132" type="line"/>
    </contour>
    <contour>
      <point x="425" y="193" type="line"/>
      <point x="425" y="78"/>
      <point x="372" y="-16"/>
      <point x="252" y="-16" type="curve" smooth="yes"/>
      <point x="120" y="-16"/>
      <point x="49" y="58"/>
      <point x="49" y="151" type="curve" smooth="yes"/>
      <point x="49" y="237"/>
      <point x="123" y="292"/>
      <point x="261" y="292" type="curve" smooth="yes"/>
      <point x="318" y="292"/>
      <point x="357" y="286"/>
      <point x="403" y="276" type="curve"/>
      <point x="403" y="187" type="line"/>
      <point x="369" y="194"/>
      <point x="332" y="199"/>
      <point x="298" y="199" type="curve" smooth="yes"/>
      <point x="250" y="199"/>
      <point x="221" y="185"/>
      <point x="221" y="151" type="curve" smooth="yes"/>
      <point x="221" y="125"/>
      <point x="245" y="104"/>
      <point x="298" y="104" type="curve" smooth="yes"/>
      <point x="366" y="104"/>
      <point x="388" y="151"/>
      <point x="388" y="193" type="curve"/>
    </contour>
  </outline>
</glyph>
<glyph name="d" format="2">
  <advance width="637"/>
  <unicode hex="0064"/>
  <outline>
    <contour>
      <point x="391" y="690" type="line"/>
      <point x="552" y="690" type="line"/>
      <point x="552" y="0" type="line"/>
      <point x="422" y="0" type="line"/>
      <point x="391" y="129" type="line"/>
    </contour>
    <contour>
      <point x="260" y="509" type="line"/>
      <point x="372" y="509"/>
      <point x="435" y="429"/>
      <point x="435" y="270" type="curve"/>
      <point x="391" y="270" type="line"/>
      <point x="391" y="327"/>
      <point x="350" y="363"/>
      <point x="301" y="363" type="curve" smooth="yes"/>
      <point x="238" y="363"/>
      <point x="202" y="315"/>
      <point x="202" y="250" type="curve" smooth="yes"/>
      <point x="202" y="180"/>
      <point x="239" y="130"/>
      <point x="300" y="130" type="curve" smooth="yes"/>
      <point x="345" y="130"/>
      <point x="391" y="174"/>
      <point x="391" y="226" type="curve"/>
      <point x="435" y="226" type="line"/>
      <point x="435" y="58"/>
      <point x="358" y="-16"/>
      <point x="273" y="-16" type="curve" smooth="yes"/>
      <point x="143" y="-16"/>
      <point x="43" y="92"/>
      <point x="43" y="250" type="curve" smooth="yes"/>
      <point x="43" y="405"/>
      <point x="137" y="509"/>
      <point x="260" y="509" type="curve" smooth="yes"/>
    </contour>
  </outline>
</glyph>
<glyph name="f" format="2">
  <advance width="394"/>
  <unicode hex="0066"/>
  <outline>
    <contour>
      <point x="394" y="687" type="line"/>
      <point x="356" y="694"/>
      <point x="312" y="699"/>
      <point x="276" y="699" type="curve" smooth="yes"/>
      <point x="194" y="699"/>
      <point x="115" y="651"/>
      <point x="115" y="535" type="curve" smooth="yes"/>
      <point x="115" y="0" type="line"/>
      <point x="276" y="0" type="line"/>
      <point x="276" y="532" type="line" smooth="yes"/>
      <point x="276" y="560"/>
      <point x="293" y="574"/>
      <point x="317" y="574" type="curve" smooth="yes"/>
      <point x="332" y="574"/>
      <point x="349" y="570"/>
      <point x="363" y="566" type="curve"/>
    </contour>
    <contour>
      <point x="49" y="390" type="line"/>
      <point x="355" y="390" type="line"/>
      <point x="355" y="493" type="line"/>
      <point x="49" y="493" type="line"/>
    </contour>
  </outline>
</glyph>
<glyph name="g" format="2">
  <advance width="600"/>
  <unicode hex="0067"/>
  <outline>
    <contour>
      <point x="235" y="170" type="line"/>
      <point x="208" y="170"/>
      <point x="185" y="156"/>
      <point x="185" y="130" type="curve" smooth="yes"/>
      <point x="185" y="106"/>
      <point x="204" y="94"/>
      <point x="248" y="94" type="curve" smooth="yes"/>
      <point x="388" y="94" type="line" smooth="yes"/>
      <point x="504" y="94"/>
      <point x="576" y="60"/>
      <point x="576" y="-30" type="curve" smooth="yes"/>
      <point x="576" y="-147"/>
      <point x="463" y="-256"/>
      <point x="290" y="-256" type="curve" smooth="yes"/>
      <point x="102" y="-256"/>
      <point x="0" y="-171"/>
      <point x="0" y="-80" type="curve" smooth="yes"/>
      <point x="0" y="-17"/>
      <point x="53" y="22"/>
      <point x="118" y="22" type="curve"/>
      <point x="248" y="-16" type="line"/>
      <point x="192" y="-16"/>
      <point x="158" y="-35"/>
      <point x="158" y="-71" type="curve" smooth="yes"/>
      <point x="158" y="-111"/>
      <point x="213" y="-130"/>
      <point x="290" y="-130" type="curve" smooth="yes"/>
      <point x="371" y="-130"/>
      <point x="418" y="-86"/>
      <point x="418" y="-43" type="curve" smooth="yes"/>
      <point x="418" y="-25"/>
      <point x="407" y="-16"/>
      <point x="388" y="-16" type="curve" smooth="yes"/>
      <point x="248" y="-16" type="line" smooth="yes"/>
      <point x="149" y="-16"/>
      <point x="51" y="38"/>
      <point x="51" y="115" type="curve" smooth="yes"/>
      <point x="51" y="177"/>
      <point x="106" y="219"/>
      <point x="189" y="219" type="curve"/>
    </contour>
    <contour>
      <point x="288" y="509" type="line"/>
      <point x="406" y="509"/>
      <point x="514" y="443"/>
      <point x="514" y="334" type="curve" smooth="yes"/>
      <point x="514" y="227"/>
      <point x="406" y="160"/>
      <point x="288" y="160" type="curve" smooth="yes"/>
      <point x="168" y="160"/>
      <point x="62" y="227"/>
      <point x="62" y="334" type="curve" smooth="yes"/>
      <point x="62" y="443"/>
      <point x="168" y="509"/>
      <point x="288" y="509" type="curve" smooth="yes"/>
    </contour>
    <contour>
      <point x="289" y="400" type="line"/>
      <point x="241" y="400"/>
      <point x="220" y="374"/>
      <point x="220" y="334" type="curve" smooth="yes"/>
      <point x="220" y="298"/>
      <point x="242" y="270"/>
      <point x="290" y="270" type="curve" smooth="yes"/>
      <point x="338" y="270"/>
      <point x="356" y="299"/>
      <point x="356" y="334" type="curve" smooth="yes"/>
      <point x="356" y="374"/>
      <point x="338" y="400"/>
      <point x="289" y="400" type="curve" smooth="yes"/>
    </contour>
    <contour>
      <point x="405" y="476" type="line"/>
      <point x="405" y="567"/>
      <point x="487" y="626"/>
      <point x="567" y="626" type="curve"/>
      <point x="560" y="475" type="line"/>
      <point x="505" y="475"/>
      <point x="476" y="460"/>
      <point x="476" y="429" type="curve"/>
    </contour>
  </outline>
</glyph>
<glyph name="k" format="2">
  <advance width="621"/>
  <unicode hex="006B"/>
  <outline>
    <contour>
      <point x="85" y="0" type="line"/>
      <point x="245" y="0" type="line"/>
      <point x="245" y="690" type="line"/>
      <point x="85" y="690" type="line"/>
    </contour>
    <contour>
      <point x="224" y="329" type="line"/>
      <point x="224" y="166" type="line"/>
      <point x="609" y="493" type="line"/>
      <point x="395" y="493" type="line"/>
    </contour>
    <contour>
      <point x="426" y="0" type="line"/>
      <point x="621" y="0" type="line"/>
      <point x="366" y="357" type="line"/>
      <point x="220" y="317" type="line"/>
    </contour>
  </outline>
</glyph>
<glyph name="n" format="2">
  <advance width="644"/>
  <unicode hex="006E"/>
  <anchor x="324" y="547" name="above"/>
  <outline>
    <contour>
      <point x="85" y="493" type="line"/>
      <point x="85" y="0" type="line"/>
      <point x="245" y="0" type="line"/>
      <point x="245" y="411" type="line"/>
      <point x="226" y="493" type="line"/>
    </contour>
    <contour>
      <point x="390" y="509" type="line"/>
      <point x="278" y="509"/>
      <point x="197" y="420"/>
      <point x="197" y="207" type="curve"/>
      <point x="245" y="207" type="line"/>
      <point x="245" y="321"/>
      <point x="290" y="363"/>
      <point x="345" y="363" type="curve" smooth="yes"/>
      <point x="382" y="363"/>
      <point x="411" y="339"/>
      <point x="411" y="287" type="curve" smooth="yes"/>
      <point x="411" y="0" type="line"/>
      <point x="571" y="0" type="line"/>
      <point x="571" y="287" type="line" smooth="yes"/>
      <point x="571" y="417"/>
      <point x="516" y="509"/>
      <point x="390" y="509" type="curve" smooth="yes"/>
    </contour>
  </outline>
</glyph>
<glyph name="o" format="2">
  <advance width="586"/>
  <unicode hex="006F"/>
  <anchor x="294" y="547" name="above"/>
  <outline>
    <contour>
      <point x="294" y="509" type="line"/>
      <point x="157" y="509"/>
      <point x="43" y="428"/>
      <point x="43" y="245" type="curve" smooth="yes"/>
      <point x="43" y="67"/>
      <point x="157" y="-16"/>
      <point x="294" y="-16" type="curve" smooth="yes"/>
      <point x="429" y="-16"/>
      <point x="543" y="67"/>
      <point x="543" y="245" type="curve" smooth="yes"/>
      <point x="543" y="428"/>
      <point x="429" y="509"/>
      <point x="294" y="509" type="curve" smooth="yes"/>
    </contour>
    <contour>
      <point x="300" y="369" type="line"/>
      <point x="346" y="369"/>
      <point x="385" y="337"/>
      <point x="385" y="245" type="curve" smooth="yes"/>
      <point x="385" y="156"/>
      <point x="334" y="124"/>
      <point x="288" y="124" type="curve" smooth="yes"/>
      <point x="242" y="124"/>
      <point x="203" y="156"/>
      <point x="203" y="245" type="curve" smooth="yes"/>
      <point x="203" y="337"/>
      <point x="253" y="369"/>
      <point x="300" y="369" type="curve" smooth="yes"/>
    </contour>
  </outline>
</glyph>
<glyph name="s" format="2">
  <advance width="529"/>
  <unicode hex="0073"/>
  <outline>
    <contour>
      <point x="271" y="509" type="line"/>
      <point x="402" y="509"/>
      <point x="476" y="440"/>
      <point x="476" y="345" type="curve"/>
      <point x="330" y="345" type="line"/>
      <point x="330" y="368"/>
      <point x="313" y="385"/>
      <point x="271" y="385" type="curve" smooth="yes"/>
      <point x="238" y="385"/>
      <point x="215" y="372"/>
      <point x="215" y="354" type="curve" smooth="yes"/>
      <point x="215" y="341"/>
      <point x="224" y="332"/>
      <point x="247" y="323" type="curve" smooth="yes"/>
      <point x="383" y="269" type="line" smooth="yes"/>
      <point x="450" y="243"/>
      <point x="492" y="205"/>
      <point x="492" y="145" type="curve" smooth="yes"/>
      <point x="492" y="62"/>
      <point x="399" y="-16"/>
      <point x="275" y="-16" type="curve" smooth="yes"/>
      <point x="134" y="-16"/>
      <point x="36" y="40"/>
      <point x="36" y="154" type="curve"/>
      <point x="182" y="154" type="line"/>
      <point x="182" y="120"/>
      <point x="210" y="108"/>
      <point x="254" y="108" type="curve" smooth="yes"/>
      <point x="294" y="108"/>
      <point x="313" y="125"/>
      <point x="313" y="145" type="curve" smooth="yes"/>
      <point x="313" y="160"/>
      <point x="301" y="170"/>
      <point x="276" y="179" type="curve" smooth="yes"/>
      <point x="156" y="226" type="line" smooth="yes"/>
      <point x="85" y="254"/>
      <point x="46" y="300"/>
      <point x="46" y="362" type="curve" smooth="yes"/>
      <point x="46" y="450"/>
      <point x="132" y="509"/>
      <point x="271" y="509" type="curve" smooth="yes"/>
    </contour>
  </outline>
</glyph>
<glyph name="v" format="2">
  <advance width="536"/>
  <unicode hex="0076"/>
  <outline>
    <contour>
      <point x="6" y="493" type="line"/>
      <point x="176" y="0" type="line"/>
      <point x="360" y="0" type="line"/>
      <point x="530" y="493" type="line"/>
      <point x="345" y="493" type="line"/>
      <point x="264" y="137" type="line"/>
      <point x="272" y="137" type="line"/>
      <point x="191" y="493" type="line"/>
    </contour>
  </outline>
</glyph>
<glyph name="w" format="2">
  <advance width="793"/>
  <unicode hex="0077"/>
  <outline>
    <contour>
      <point x="6" y="493" type="line"/>
      <point x="170" y="0" type="line"/>
      <point x="329" y="0" type="line"/>
      <point x="409" y="289" type="line"/>
      <point x="384" y="289" type="line"/>
      <point x="464" y="0" type="line"/>
      <point x="623" y="0" type="line"/>
      <point x="787" y="493" type="line"/>
      <point x="627" y="493" type="line"/>
      <point x="539" y="156" type="line"/>
      <point x="554" y="156" type="line"/>
      <point x="475" y="464" type="line"/>
      <point x="324" y="464" type="line"/>
      <point x="245" y="157" type="line"/>
      <point x="260" y="157" type="line"/>
      <point x="173" y="493" type="line"/>
    </contour>
  </outline>
</glyph>
<glyph name="z" format="2">
  <advance width="516"/>
  <unicode hex="007A"/>
  <outline>
    <contour>
      <point x="61" y="130" type="line"/>
      <point x="282" y="363" type="line"/>
      <point x="61" y="363" type="line"/>
      <point x="61" y="493" type="line"/>
      <point x="456" y="493" type="line"/>
      <point x="456" y="363" type="line"/>
      <point x="247" y="130" type="line"/>
      <point x="456" y="130" type="line"/>
      <point x="456" y="0" type="line"/>
      <point x="61" y="0" type="line"/>
    </contour>
  </outline>
</glyph>
<glyph name="braceleft" format="2">
  <advance width="436"/>
  <unicode hex="007B"/>
  <outline>
    <contour>
      <point x="436" y="-174" type="line"/>
      <point x="225" y="-174"/>
      <point x="131" y="-64"/>
      <point x="131" y="95" type="curve" smooth="yes"/>
      <point x="131" y="187" type="line" smooth="yes"/>
      <point x="131" y="238"/>
      <point x="126" y="254"/>
      <point x="101" y="254" type="curve" smooth="yes"/>
      <point x="67" y="254" type="line"/>
      <point x="67" y="417" type="line"/>
      <point x="101" y="417" type="line" smooth="yes"/>
      <point x="126" y="417"/>
      <point x="131" y="431"/>
      <point x="131" y="484" type="curve" smooth="yes"/>
      <point x="131" y="576" type="line" smooth="yes"/>
      <point x="131" y="735"/>
      <point x="225" y="844"/>
      <point x="436" y="844" type="curve"/>
      <point x="436" y="699" type="line"/>
      <point x="338" y="699"/>
      <point x="289" y="665"/>
      <point x="289" y="573" type="curve" smooth="yes"/>
      <point x="289" y="475" type="line" smooth="yes"/>
      <point x="289" y="408"/>
      <point x="254" y="361"/>
      <point x="209" y="339" type="curve"/>
      <point x="209" y="332" type="line"/>
      <point x="254" y="310"/>
      <point x="289" y="262"/>
      <point x="289" y="196" type="curve" smooth="yes"/>
      <point x="289" y="97" type="line" smooth="yes"/>
      <point x="289" y="6"/>
      <point x="338" y="-28"/>
      <point x="436" y="-28" type="curve"/>
    </contour>
  </outline>
</glyph>
<glyph name="sterling" format="2">
  <advance width="640"/>
  <unicode hex="00A3"/>
  <outline>
    <contour>
      <point x="47" y="399" type="line"/>
      <point x="47" y="295" type="line"/>
      <point x="442" y="295" type="line"/>
      <point x="442" y="399" type="line"/>
    </contour>
    <contour>
      <point x="24" y="0" type="line"/>
      <point x="334" y="0" type="line" smooth="yes"/>
      <point x="531" y="0"/>
      <point x="604" y="78"/>
      <point x="604" y="216" type="curve"/>
      <point x="428" y="216" type="line"/>
      <point x="424" y="169"/>
      <point x="401" y="146"/>
      <point x="333" y="146" type="curve" smooth="yes"/>
      <point x="24" y="146" type="line"/>
    </contour>
    <contour>
      <point x="346" y="686" type="line"/>
      <point x="222" y="686"/>
      <point x="122" y="616"/>
      <point x="122" y="457" type="curve" smooth="yes"/>
      <point x="122" y="230" type="line" smooth="yes"/>
      <point x="122" y="173"/>
      <point x="107" y="146"/>
      <point x="61" y="146" type="curve"/>
      <point x="61" y="100" type="line"/>
      <point x="225" y="100"/>
      <point x="282" y="147"/>
      <point x="282" y="242" type="curve" smooth="yes"/>
      <point x="282" y="457" type="line" smooth="yes"/>
      <point x="282" y="514"/>
      <point x="309" y="541"/>
      <point x="346" y="541" type="curve" smooth="yes"/>
      <point x="380" y="541"/>
      <point x="399" y="518"/>
      <point x="402" y="485" type="curve"/>
      <point x="559" y="485" type="line"/>
      <point x="543" y="618"/>
      <point x="474" y="686"/>
      <point x="346" y="686" type="curve" smooth="yes"/>
    </contour>
  </outline>
</glyph>
<glyph name="plusminus" format="2">
  <advance width="526"/>
  <unicode hex="00B1"/>
  <outline>
    <contour>
      <point x="202" y="574" type="line"/>
      <point x="202" y="435" type="line"/>
      <point x="79" y="435" type="line"/>
      <point x="79" y="335" type="line"/>
      <point x="202" y="335" type="line"/>
      <point x="202" y="197" type="line"/>
      <point x="323" y="197" type="line"/>
      <point x="323" y="335" type="line"/>
      <point x="446" y="335" type="line"/>
      <point x="446" y="435" type="line"/>
      <point x="323" y="435" type="line"/>
      <point x="323" y="574" type="line"/>
    </contour>
    <contour>
      <point x="79" y="119" type="line"/>
      <point x="79" y="0" type="line"/>
      <point x="447" y="0" type="line"/>
      <point x="447" y="119" type="line"/>
    </contour>
  </outline>
</glyph>
<glyph name="acute" format="2">
  <advance width="401"/>
  <unicode hex="00B4"/>
  <anchor x="200" y="690" name="_above"/>
  <outline>
    <contour>
      <point x="377" y="807" type="line"/>
      <point x="61" y="712" type="line"/>
      <point x="24" y="813" type="line"/>
      <point x="324" y="944" type="line"/>
    </contour>
  </outline>
</glyph>
<glyph name="circumflex" format="2">
  <advance width="527"/>
  <unicode hex="02C6"/>
  <anchor x="264" y="690" name="_above"/>
  <outline>
    <contour>
      <point x="264" y="956" type="line"/>
      <point x="24" y="791" type="line"/>
      <point x="126" y="711" type="line"/>
      <point x="264" y="804" type="line"/>
      <point x="401" y="711" type="line"/>
      <point x="503" y="791" type="line"/>
    </contour>
  </outline>
</glyph>
<glyph name="minus" format="2">
  <advance width="526"/>
  <unicode hex="2212"/>
  <outline>
    <contour>
      <point x="79" y="382" type="line"/>
      <point x="79" y="243" type="line"/>
      <point x="447" y="243" type="line"/>
      <point x="447" y="382" type="line"/>
    </contour>
  </outline>
</glyph>
<glyph name="lessequal" format="2">
  <advance width="526"/>
  <unicode hex="2264"/>
  <outline>
    <contour>
      <point x="431" y="155" type="line"/>
      <point x="458" y="285" type="line"/>
      <point x="152" y="368" type="line"/>
      <point x="152" y="312" type="line"/>
      <point x="458" y="396" type="line"/>
      <point x="431" y="526" type="line"/>
      <point x="68" y="399" type="line"/>
      <point x="68" y="281" type="line"/>
    </contour>
    <contour>
      <point x="71" y="0" type="line"/>
      <point x="439" y="0" type="line"/>
      <point x="439" y="119" type="line"/>
      <point x="71" y="119" type="line"/>
    </contour>
  </outline>
</glyph>
<glyph name="asciicircum.tf" format="2">
  <advance width="600"/>
  <outline>
    <contour>
      <point x="12" y="190" type="line"/>
      <point x="235" y="620" type="line"/>
      <point x="366" y="620" type="line"/>
      <point x="588" y="190" type="line"/>
      <point x="412" y="190" type="line"/>
      <point x="269" y="502" type="line"/>
      <point x="332" y="502" type="line"/>
      <point x="188" y="190" type="line"/>
    </contour>
  </outline>
</glyph>
<glyph name="asciitilde.tf" format="2">
  <advance width="600"/>
  <outline>
    <contour>
      <point x="130" y="185" type="curve"/>
      <point x="46" y="230" type="line"/>
      <point x="70" y="330"/>
      <point x="113" y="400"/>
      <point x="196" y="400" type="curve" smooth="yes"/>
      <point x="230" y="400"/>
      <point x="266" y="390"/>
      <point x="312" y="372" type="curve" smooth="yes"/>
      <point x="353" y="356"/>
      <point x="381" y="347"/>
      <point x="402" y="347" type="curve" smooth="yes"/>
      <point x="428" y="347"/>
      <point x="450" y="366"/>
      <point x="465" y="401" type="curve"/>
      <point x="551" y="347" type="line"/>
      <point x="521" y="249"/>
      <point x="464" y="196"/>
      <point x="388" y="196" type="curve" smooth="yes"/>
      <point x="364" y="196"/>
      <point x="331" y="205"/>
      <point x="283" y="224" type="curve" smooth="yes"/>
      <point x="241" y="241"/>
      <point x="217" y="247"/>
      <point x="196" y="247" type="curve" smooth="yes"/>
      <point x="168" y="247"/>
      <point x="147" y="228"/>
    </contour>
  </outline>
</glyph>
<glyph name="asterisk.tf" format="2">
  <advance width="600"/>
  <outline>
    <contour>
      <point x="159" y="468" type="line"/>
      <point x="230" y="405" type="line"/>
      <point x="301" y="502" type="line"/>
      <point x="370" y="405" type="line"/>
      <point x="443" y="468" type="line"/>
      <point x="362" y="543" type="line"/>
      <point x="464" y="576" type="line"/>
      <point x="427" y="665" type="line"/>
      <point x="336" y="615" type="line"/>
      <point x="351" y="725" type="line"/>
      <point x="249" y="725" type="line"/>
      <point x="264" y="615" type="line"/>
      <point x="173" y="663" type="line"/>
      <point x="136" y="575" type="line"/>
      <point x="241" y="542" type="line"/>
    </contour>
  </outline>
</glyph>
<glyph name="comma.tf" format="2">
  <advance width="600"/>
  <outline>
    <contour>
      <point x="199" y="84" type="line"/>
      <point x="199" y="36"/>
      <point x="237" y="6"/>
      <point x="282" y="-4" type="curve"/>
      <point x="267" y="-45"/>
      <point x="221" y="-80"/>
      <point x="171" y="-104" type="curve"/>
      <point x="288" y="-164" type="line"/>
      <point x="372" y="-123"/>
      <point x="428" y="-38"/>
      <point x="428" y="39" type="curve" smooth="yes"/>
      <point x="428" y="115"/>
      <point x="383" y="176"/>
      <point x="306" y="176" type="curve" smooth="yes"/>
      <point x="245" y="176"/>
      <point x="199" y="137"/>
      <point x="199" y="84" type="curve" smooth="yes"/>
    </contour>
  </outline>
</glyph>
<glyph name="currency.tf" format="2">
  <advance width="600"/>
  <outline>
    <contour>
      <point x="300" y="103" type="curve" smooth="yes"/>
      <point x="422" y="103"/>
      <point x="521" y="202"/>
      <point x="521" y="324" type="curve" smooth="yes"/>
      <point x="521" y="446"/>
      <point x="422" y="545"/>
      <point x="300" y="545" type="curve" smooth="yes"/>
      <point x="178" y="545"/>
      <point x="79" y="446"/>
      <point x="79" y="324" type="curve" smooth="yes"/>
      <point x="79" y="202"/>
      <point x="178" y="103"/>
    </contour>
    <contour>
      <point x="300" y="241" type="curve" smooth="yes"/>
      <point x="254" y="241"/>
      <point x="217" y="278"/>
      <point x="217" y="324" type="curve" smooth="yes"/>
      <point x="217" y="370"/>
      <point x="254" y="407"/>
      <point x="300" y="407" type="curve" smooth="yes"/>
      <point x="346" y="407"/>
      <point x="383" y="370"/>
      <point x="383" y="324" type="curve" smooth="yes"/>
      <point x="383" y="278"/>
      <point x="346" y="241"/>
    </contour>
    <contour>
      <point x="417" y="381" type="line"/>
      <point x="551" y="515" type="line"/>
      <point x="491" y="575" type="line"/>
      <point x="357" y="441" type="line"/>
    </contour>
    <contour>
      <point x="173" y="390" type="line"/>
      <point x="233" y="450" type="line"/>
      <point x="109" y="574" type="line"/>
      <point x="49" y="514" type="line"/>
    </contour>
    <contour>
      <point x="427" y="257" type="line"/>
      <point x="367" y="197" type="line"/>
      <point x="491" y="73" type="line"/>
      <point x="551" y="133" type="line"/>
    </contour>
    <contour>
      <point x="173" y="257" type="line"/>
      <point x="49" y="133" type="line"/>
      <point x="109" y="73" type="line"/>
      <point x="233" y="197" type="line"/>
    </contour>
  </outline>
</glyph>
<glyph name="dollar.tf" format="2">
  <advance width="600"/>
  <outline>
    <contour>
      <point x="316" y="686" type="line"/>
      <point x="481" y="686"/>
      <point x="567" y="603"/>
      <point x="587" y="464" type="curve"/>
      <point x="429" y="464" type="line"/>
      <point x="425" y="508"/>
      <point x="378" y="550"/>
      <point x="314" y="550" type="curve" smooth="yes"/>
      <point x="236" y="550"/>
      <point x="197" y="526"/>
      <point x="197" y="492" type="curve" smooth="yes"/>
      <point x="197" y="469"/>
      <point x="212" y="452"/>
      <point x="239" y="440" type="curve" smooth="yes"/>
      <point x="297" y="414" type="line"/>
      <point x="297" y="275" type="line"/>
      <point x="200" y="309" type="line" smooth="yes"/>
      <point x="91" y="347"/>
      <point x="22" y="399"/>
      <point x="22" y="496" type="curve" smooth="yes"/>
      <point x="22" y="609"/>
      <point x="127" y="686"/>
      <point x="316" y="686" type="curve" smooth="yes"/>
    </contour>
    <contour>
      <point x="259" y="764" type="line"/>
      <point x="368" y="764" type="line"/>
      <point x="368" y="-111" type="line"/>
      <point x="259" y="-111" type="line"/>
    </contour>
    <contour>
      <point x="454" y="357" type="line" smooth="yes"/>
      <point x="554" y="320"/>
      <point x="596" y="266"/>
      <point x="596" y="182" type="curve" smooth="yes"/>
      <point x="596" y="81"/>
      <point x="507" y="-16"/>
      <point x="308" y="-16" type="curve" smooth="yes"/>
      <point x="158" y="-16"/>
      <point x="3" y="50"/>
      <point x="3" y="219" type="curve"/>
      <point x="161" y="219" type="line"/>
      <point x="161" y="152"/>
      <point x="217" y="130"/>
      <point x="316" y="130" type="curve" smooth="yes"/>
      <point x="387" y="130"/>
      <point x="416" y="152"/>
      <point x="416" y="186" type="curve" smooth="yes"/>
      <point x="416" y="211"/>
      <point x="399" y="237"/>
      <point x="373" y="247" type="curve" smooth="yes"/>
      <point x="294" y="279" type="line"/>
      <point x="294" y="416" type="line"/>
    </contour>
  </outline>
</glyph>
<glyph name="eight.tf" format="2">
  <advance width="600"/>
  <outline>
    <contour>
      <point x="299" y="686" type="line"/>
      <point x="123" y="686"/>
      <point x="25" y="618"/>
      <point x="25" y="498" type="curve" smooth="yes"/>
      <point x="25" y="396"/>
      <point x="116" y="333"/>
      <point x="187" y="306" type="curve" smooth="yes"/>
      <point x="384" y="230" type="line" smooth="yes"/>
      <point x="416" y="218"/>
      <point x="433" y="199"/>
      <point x="433" y="179" type="curve" smooth="yes"/>
      <point x="433" y="151"/>
      <point x="398" y="130"/>
      <point x="299" y="130" type="curve" smooth="yes"/>
      <point x="229" y="130"/>
      <point x="166" y="158"/>
      <point x="166" y="200" type="curve" smooth="yes"/>
      <point x="166" y="239"/>
      <point x="221" y="267"/>
      <point x="291" y="267" type="curve"/>
      <point x="291" y="301" type="line"/>
      <point x="247" y="313"/>
      <point x="221" y="321"/>
      <point x="185" y="321" type="curve" smooth="yes"/>
      <point x="82" y="321"/>
      <point x="2" y="271"/>
      <point x="2" y="181" type="curve" smooth="yes"/>
      <point x="2" y="70"/>
      <point x="111" y="-16"/>
      <point x="299" y="-16" type="curve" smooth="yes"/>
      <point x="489" y="-16"/>
      <point x="597" y="70"/>
      <point x="597" y="187" type="curve" smooth="yes"/>
      <point x="597" y="279"/>
      <point x="541" y="321"/>
      <point x="443" y="360" type="curve" smooth="yes"/>
      <point x="234" y="442" type="line" smooth="yes"/>
      <point x="201" y="455"/>
      <point x="189" y="470"/>
      <point x="189" y="490" type="curve" smooth="yes"/>
      <point x="189" y="521"/>
      <point x="238" y="541"/>
      <point x="299" y="541" type="curve" smooth="yes"/>
      <point x="364" y="541"/>
      <point x="410" y="519"/>
      <point x="410" y="476" type="curve" smooth="yes"/>
      <point x="410" y="437"/>
      <point x="358" y="413"/>
      <point x="306" y="413" type="curve"/>
      <point x="306" y="371" type="line"/>
      <point x="344" y="357"/>
      <point x="367" y="351"/>
      <point x="399" y="351" type="curve" smooth="yes"/>
      <point x="507" y="351"/>
      <point x="574" y="416"/>
      <point x="574" y="488" type="curve" smooth="yes"/>
      <point x="574" y="603"/>
      <point x="450" y="686"/>
      <point x="299" y="686" type="curve" smooth="yes"/>
    </contour>
  </outline>
</glyph>
<glyph name="equal.tf" format="2">
  <advance width="600"/>
  <outline>
    <contour>
      <point x="116" y="213" type="line"/>
      <point x="116" y="73" type="line"/>
      <point x="484" y="73" type="line"/>
      <point x="484" y="213" type="line"/>
    </contour>
    <contour>
      <point x="116" y="442" type="line"/>
      <point x="116" y="303" type="line"/>
      <point x="484" y="303" type="line"/>
      <point x="484" y="442" type="line"/>
    </contour>
  </outline>
</glyph>
<glyph name="exclam.tf" format="2">
  <advance width="600"/>
  <outline>
    <contour>
      <point x="228" y="264" type="line"/>
      <point x="369" y="264" type="line"/>
      <point x="386" y="702" type="line"/>
      <point x="211" y="702" type="line"/>
    </contour>
    <contour>
      <point x="192" y="94" type="line"/>
      <point x="192" y="34"/>
      <point x="236" y="-9"/>
      <point x="299" y="-9" type="curve" smooth="yes"/>
      <point x="363" y="-9"/>
      <point x="409" y="34"/>
      <point x="409" y="94" type="curve" smooth="yes"/>
      <point x="409" y="152"/>
      <point x="363" y="196"/>
      <point x="299" y="196" type="curve" smooth="yes"/>
      <point x="236" y="196"/>
      <point x="192" y="152"/>
      <point x="192" y="94" type="curve" smooth="yes"/>
    </contour>
  </outline>
</glyph>
<glyph name="four.prop" format="2">
  <advance width="635"/>
  <outline>
    <contour>
      <point x="346" y="604" type="line"/>
      <point x="12" y="163" type="line"/>
      <point x="12" y="43" type="line"/>
      <point x="346" y="43" type="line"/>
      <point x="346" y="-111" type="line"/>
      <point x="507" y="-111" type="line"/>
      <point x="507" y="43" type="line"/>
      <point x="623" y="43" type="line"/>
      <point x="623" y="182" type="line"/>
      <point x="507" y="182" type="line"/>
      <point x="507" y="604" type="line"/>
    </contour>
    <contour>
      <point x="354" y="378" type="line"/>
      <point x="354" y="163" type="line"/>
      <point x="185" y="163" type="line"/>
    </contour>
  </outline>
</glyph>
<glyph name="minus.tf" format="2">
  <advance width="600"/>
  <outline>
    <contour>
      <point x="116" y="382" type="line"/>
      <point x="116" y="243" type="line"/>
      <point x="484" y="243" type="line"/>
      <point x="484" y="382" type="line"/>
    </contour>
  </outline>
</glyph>
<glyph name="nine.tf" format="2">
  <advance width="600"/>
  <outline>
    <contour>
      <point x="276" y="686" type="line"/>
      <point x="442" y="686"/>
      <point x="579" y="547"/>
      <point x="579" y="345" type="curve" smooth="yes"/>
      <point x="579" y="125"/>
      <point x="479" y="-16"/>
      <point x="291" y="-16" type="curve" smooth="yes"/>
      <point x="146" y="-16"/>
      <point x="29" y="69"/>
      <point x="29" y="198" type="curve"/>
      <point x="196" y="198" type="line"/>
      <point x="201" y="156"/>
      <point x="241" y="130"/>
      <point x="285" y="130" type="curve" smooth="yes"/>
      <point x="385" y="130"/>
      <point x="420" y="222"/>
      <point x="420" y="354" type="curve" smooth="yes"/>
      <point x="420" y="368"/>
      <point x="419" y="383"/>
      <point x="417" y="396" type="curve"/>
      <point x="393" y="284"/>
      <point x="314" y="252"/>
      <point x="234" y="252" type="curve" smooth="yes"/>
      <point x="104" y="252"/>
      <point x="20" y="341"/>
      <point x="20" y="467" type="curve" smooth="yes"/>
      <point x="20" y="597"/>
      <point x="126" y="686"/>
      <point x="276" y="686" type="curve" smooth="yes"/>
    </contour>
    <contour>
      <point x="276" y="539" type="line"/>
      <point x="228" y="539"/>
      <point x="184" y="507"/>
      <point x="184" y="458" type="curve" smooth="yes"/>
      <point x="184" y="407"/>
      <point x="228" y="378"/>
      <point x="278" y="378" type="curve" smooth="yes"/>
      <point x="325" y="378"/>
      <point x="370" y="407"/>
      <point x="370" y="458" type="curve" smooth="yes"/>
      <point x="370" y="507"/>
      <point x="325" y="539"/>
      <point x="276" y="539" type="curve" smooth="yes"/>
    </contour>
  </outline>
</glyph>
<glyph name="plus.tf" format="2">
  <advance width="600"/>
  <outline>
    <contour>
      <point x="220" y="491" type="line"/>
      <point x="220" y="315" type="line"/>
      <point x="38" y="315" type="line"/>
      <point x="38" y="175" type="line"/>
      <point x="220" y="175" type="line"/>
      <point x="220" y="0" type="line"/>
      <point x="381" y="0" type="line"/>
      <point x="381" y="175" type="line"/>
      <point x="563" y="175" type="line"/>
      <point x="563" y="315" type="line"/>
      <point x="381" y="315" type="line"/>
      <point x="381" y="491" type="line"/>
    </contour>
  </outline>
</glyph>
<glyph name="question.tf" format="2">
  <advance width="600"/>
  <outline>
    <contour>
      <point x="296" y="686" type="line"/>
      <point x="453" y="686"/>
      <point x="550" y="601"/>
      <point x="550" y="488" type="curve" smooth="yes"/>
      <point x="550" y="417"/>
      <point x="516" y="369"/>
      <point x="444" y="335" type="curve" smooth="yes"/>
      <point x="382" y="306"/>
      <point x="364" y="286"/>
      <point x="364" y="247" type="curve" smooth="yes"/>
      <point x="364" y="230" type="line"/>
      <point x="204" y="230" type="line"/>
      <point x="204" y="264" type="line" smooth="yes"/>
      <point x="204" y="351"/>
      <point x="236" y="384"/>
      <point x="304" y="416" type="curve" smooth="yes"/>
      <point x="363" y="444"/>
      <point x="374" y="462"/>
      <point x="374" y="488" type="curve" smooth="yes"/>
      <point x="374" y="519"/>
      <point x="346" y="541"/>
      <point x="303" y="541" type="curve" smooth="yes"/>
      <point x="246" y="541"/>
      <point x="213" y="507"/>
      <point x="213" y="464" type="curve"/>
      <point x="49" y="464" type="line"/>
      <point x="54" y="600"/>
      <point x="140" y="686"/>
      <point x="296" y="686" type="curve" smooth="yes"/>
    </contour>
    <contour>
      <point x="289" y="188" type="line"/>
      <point x="352" y="188"/>
      <point x="398" y="145"/>
      <point x="398" y="86" type="curve" smooth="yes"/>
      <point x="398" y="27"/>
      <point x="352" y="-16"/>
      <point x="289" y="-16" type="curve" smooth="yes"/>
      <point x="225" y="-16"/>
      <point x="182" y="27"/>
      <point x="182" y="86" type="curve" smooth="yes"/>
      <point x="182" y="145"/>
      <point x="225" y="188"/>
      <point x="289" y="188" type="curve" smooth="yes"/>
    </contour>
  </outline>
</glyph>
<glyph name="seven.prop" format="2">
  <advance width="527"/>
  <outline>
    <contour>
      <point x="24" y="618" type="line"/>
      <point x="24" y="479" type="line"/>
      <point x="349" y="479" type="line"/>
      <point x="17" y="-111" type="line"/>
      <point x="210" y="-111" type="line"/>
      <point x="509" y="479" type="line"/>
      <point x="509" y="618" type="line"/>
    </contour>
  </outline>
</glyph>
<glyph name="six.tf" format="2">
  <advance width="600"/>
  <outline>
    <contour>
      <point x="403" y="473" type="line"/>
      <point x="399" y="515"/>
      <point x="373" y="541"/>
      <point x="328" y="541" type="curve" smooth="yes"/>
      <point x="237" y="541"/>
      <point x="179" y="453"/>
      <point x="179" y="316" type="curve" smooth="yes"/>
      <point x="179" y="301"/>
      <point x="180" y="287"/>
      <point x="181" y="273" type="curve"/>
      <point x="205" y="386"/>
      <point x="284" y="419"/>
      <point x="365" y="419" type="curve" smooth="yes"/>
      <point x="496" y="419"/>
      <point x="580" y="328"/>
      <point x="580" y="203" type="curve" smooth="yes"/>
      <point x="580" y="73"/>
      <point x="474" y="-17"/>
      <point x="322" y="-17" type="curve" smooth="yes"/>
      <point x="145" y="-17"/>
      <point x="20" y="123"/>
      <point x="20" y="324" type="curve" smooth="yes"/>
      <point x="20" y="560"/>
      <point x="146" y="686"/>
      <point x="322" y="686" type="curve" smooth="yes"/>
      <point x="468" y="686"/>
      <point x="571" y="601"/>
      <point x="571" y="473" type="curve"/>
    </contour>
    <contour>
      <point x="321" y="292" type="line"/>
      <point x="273" y="292"/>
      <point x="229" y="262"/>
      <point x="229" y="211" type="curve" smooth="yes"/>
      <point x="229" y="163"/>
      <point x="273" y="130"/>
      <point x="322" y="130" type="curve" smooth="yes"/>
      <point x="371" y="130"/>
      <point x="416" y="163"/>
      <point x="416" y="211" type="curve" smooth="yes"/>
      <point x="416" y="262"/>
      <point x="371" y="292"/>
      <point x="321" y="292" type="curve" smooth="yes"/>
    </contour>
  </outline>
</glyph>
<glyph name="slash.tf" format="2">
  <advance width="600"/>
  <outline>
    <contour>
      <point x="87" y="-89" type="line"/>
      <point x="249" y="-89" type="line"/>
      <point x="514" y="759" type="line"/>
      <point x="351" y="759" type="line"/>
    </contour>
  </outline>
</glyph>
<glyph name="three.tf" format="2">
  <advance width="600"/>
  <outline>
    <contour>
      <point x="297" y="686" type="line"/>
      <point x="141" y="686"/>
      <point x="31" y="617"/>
      <point x="19" y="468" type="curve"/>
      <point x="189" y="468" type="line"/>
      <point x="197" y="520"/>
      <point x="248" y="541"/>
      <point x="304" y="541" type="curve" smooth="yes"/>
      <point x="370" y="541"/>
      <point x="398" y="513"/>
      <point x="398" y="473" type="curve" smooth="yes"/>
      <point x="398" y="430"/>
      <point x="365" y="401"/>
      <point x="312" y="401" type="curve" smooth="yes"/>
      <point x="212" y="401" type="line"/>
      <point x="212" y="275" type="line"/>
      <point x="315" y="275" type="line" smooth="yes"/>
      <point x="380" y="275"/>
      <point x="417" y="254"/>
      <point x="417" y="208" type="curve" smooth="yes"/>
      <point x="417" y="163"/>
      <point x="374" y="130"/>
      <point x="305" y="130" type="curve" smooth="yes"/>
      <point x="231" y="130"/>
      <point x="188" y="168"/>
      <point x="182" y="217" type="curve"/>
      <point x="11" y="217" type="line"/>
      <point x="11" y="64"/>
      <point x="157" y="-16"/>
      <point x="305" y="-16" type="curve" smooth="yes"/>
      <point x="473" y="-16"/>
      <point x="590" y="69"/>
      <point x="590" y="191" type="curve" smooth="yes"/>
      <point x="590" y="267"/>
      <point x="542" y="320"/>
      <point x="466" y="351" type="curve"/>
      <point x="535" y="375"/>
      <point x="570" y="428"/>
      <point x="570" y="495" type="curve" smooth="yes"/>
      <point x="570" y="610"/>
      <point x="454" y="686"/>
      <point x="297" y="686" type="curve" smooth="yes"/>
    </contour>
  </outline>
</glyph>
<glyph name="two.prop" format="2">
  <advance width="617"/>
  <outline>
    <contour>
      <point x="215" y="160" type="line"/>
      <point x="215" y="182"/>
      <point x="234" y="193"/>
      <point x="276" y="204" type="curve" smooth="yes"/>
      <point x="375" y="230" type="line" smooth="yes"/>
      <point x="508" y="264"/>
      <point x="559" y="321"/>
      <point x="559" y="422" type="curve" smooth="yes"/>
      <point x="559" y="537"/>
      <point x="465" y="618"/>
      <point x="320" y="618" type="curve" smooth="yes"/>
      <point x="176" y="618"/>
      <point x="66" y="556"/>
      <point x="66" y="413" type="curve"/>
      <point x="244" y="413" type="line"/>
      <point x="249" y="459"/>
      <point x="283" y="479"/>
      <point x="329" y="479" type="curve" smooth="yes"/>
      <point x="373" y="479"/>
      <point x="401" y="454"/>
      <point x="401" y="420" type="curve" smooth="yes"/>
      <point x="401" y="382"/>
      <point x="380" y="355"/>
      <point x="304" y="335" type="curve" smooth="yes"/>
      <point x="219" y="313" type="line" smooth="yes"/>
      <point x="106" y="284"/>
      <point x="55" y="231"/>
      <point x="55" y="113" type="curve" smooth="yes"/>
      <point x="55" y="0" type="line"/>
      <point x="569" y="0" type="line"/>
      <point x="569" y="146" type="line"/>
      <point x="215" y="146" type="line"/>
    </contour>
  </outline>
</glyph>
<glyph name="yen.tf" format="2">
  <advance width="600"/>
  <outline>
    <contour>
      <point x="213" y="0" type="line"/>
      <point x="372" y="0" type="line"/>
      <point x="372" y="278" type="line"/>
      <point x="598" y="671" type="line"/>
      <point x="409" y="671" type="line"/>
      <point x="282" y="419" type="line"/>
      <point x="307" y="419" type="line"/>
      <point x="191" y="671" type="line"/>
      <point x="2" y="671" type="line"/>
      <point x="213" y="278" type="line"/>
    </contour>
    <contour>
      <point x="115" y="68" type="line"/>
      <point x="475" y="68" type="line"/>
      <point x="475" y="153" type="line"/>
      <point x="115" y="153" type="line"/>
    </contour>
    <contour>
      <point x="115" y="183" type="line"/>
      <point x="475" y="183" type="line"/>
      <point x="475" y="268" type="line"/>
      <point x="115" y="268" type="line"/>
    </contour>
  </outline>
</glyph>
